<svg width="16" height="16" viewBox="0 0 16 16" fill="none" xmlns="http://www.w3.org/2000/svg">
<path d="M11.75 8.00001C11.75 8.00001 11.75 7.95501 11.75 7.93251C11.7466 7.86052 11.7314 7.78958 11.705 7.72251C11.6849 7.67107 11.6571 7.62301 11.6225 7.58001C11.6026 7.54577 11.58 7.51317 11.555 7.48251L9.41 5.23251C9.34204 5.1611 9.26068 5.10378 9.17057 5.06381C9.08046 5.02385 8.98336 5.00203 8.88481 4.99959C8.68579 4.99467 8.49296 5.06901 8.34875 5.20626C8.20454 5.34351 8.12076 5.53242 8.11583 5.73144C8.11091 5.93047 8.18525 6.12329 8.3225 6.26751L9.245 7.25001H5C4.80109 7.25001 4.61032 7.32902 4.46967 7.46968C4.32902 7.61033 4.25 7.80109 4.25 8.00001C4.25 8.19892 4.32902 8.38968 4.46967 8.53034C4.61032 8.67099 4.80109 8.75001 5 8.75001H9.1925L8.2175 9.71751C8.1472 9.78723 8.09141 9.87018 8.05333 9.96157C8.01526 10.053 7.99565 10.151 7.99565 10.25C7.99565 10.349 8.01526 10.447 8.05333 10.5384C8.09141 10.6298 8.1472 10.7128 8.2175 10.7825C8.28722 10.8528 8.37017 10.9086 8.46157 10.9467C8.55296 10.9848 8.65099 11.0044 8.75 11.0044C8.84901 11.0044 8.94704 10.9848 9.03843 10.9467C9.12983 10.9086 9.21278 10.8528 9.2825 10.7825L11.5325 8.53251C11.6 8.46339 11.6534 8.3819 11.69 8.29251C11.7294 8.20001 11.7498 8.10054 11.75 8.00001Z" fill="#DF921E"/>
<path d="M8 0.5C6.51664 0.5 5.0666 0.939867 3.83323 1.76398C2.59986 2.58809 1.63856 3.75943 1.07091 5.12987C0.50325 6.50032 0.354725 8.00832 0.644114 9.46318C0.933503 10.918 1.64781 12.2544 2.6967 13.3033C3.7456 14.3522 5.08197 15.0665 6.53683 15.3559C7.99168 15.6453 9.49968 15.4968 10.8701 14.9291C12.2406 14.3614 13.4119 13.4001 14.236 12.1668C15.0601 10.9334 15.5 9.48336 15.5 8C15.5 7.01509 15.306 6.03982 14.9291 5.12987C14.5522 4.21993 13.9997 3.39314 13.3033 2.6967C12.6069 2.00026 11.7801 1.44781 10.8701 1.0709C9.96019 0.693993 8.98492 0.5 8 0.5ZM8 14C6.81332 14 5.65328 13.6481 4.66658 12.9888C3.67989 12.3295 2.91085 11.3925 2.45673 10.2961C2.0026 9.19974 1.88378 7.99334 2.11529 6.82946C2.3468 5.66557 2.91825 4.59647 3.75736 3.75736C4.59648 2.91824 5.66558 2.3468 6.82946 2.11529C7.99335 1.88378 9.19975 2.0026 10.2961 2.45672C11.3925 2.91085 12.3295 3.67988 12.9888 4.66658C13.6481 5.65327 14 6.81331 14 8C14 9.5913 13.3679 11.1174 12.2426 12.2426C11.1174 13.3679 9.5913 14 8 14Z" fill="#DF921E"/>
</svg>
